HIERARCHY
ROOT Hips
{
 OFFSET 0.000000 0.000000 0.000000
 CHANNELS 6 Xposition Yposition Zposition Yrotation Xrotation Zrotation
 JOINT Chest
 {
  OFFSET 0.000000 9.585900 0.002600
  CHANNELS 3 Yrotation Xrotation Zrotation
  JOINT Chest2
  {
   OFFSET 0.000000 9.601200 -0.005300
   CHANNELS 3 Yrotation Xrotation Zrotation
   JOINT Chest3
   {
    OFFSET 0.000000 9.561800 0.000000
    CHANNELS 3 Yrotation Xrotation Zrotation
    JOINT Chest4
    {
     OFFSET 0.000000 9.552100 0.000000
     CHANNELS 3 Yrotation Xrotation Zrotation
     JOINT Neck
     {
      OFFSET 0.000000 14.453000 0.000000
      CHANNELS 3 Yrotation Xrotation Zrotation
      JOINT Head
      {
       OFFSET 0.000000 8.936500 -0.011300
       CHANNELS 3 Yrotation Xrotation Zrotation
       End Site
       {
        OFFSET 0.000000 17.073600 -0.006000
       }
      }
     }
     JOINT RightCollar
     {
      OFFSET -2.921100 9.558500 0.000000
      CHANNELS 3 Yrotation Xrotation Zrotation
      JOINT RightShoulder
      {
       OFFSET -13.519700 0.000000 0.000000
       CHANNELS 3 Yrotation Xrotation Zrotation
       JOINT RightElbow
       {
        OFFSET 0.000000 -29.696600 0.000000
        CHANNELS 3 Yrotation Xrotation Zrotation
        JOINT RightWrist
        {
         OFFSET 0.000000 -24.004700 0.000000
         CHANNELS 3 Yrotation Xrotation Zrotation
         End Site
         {
          OFFSET 0.000000 -17.728500 0.000000
         }
        }
       }
      }
     }
     JOINT LeftCollar
     {
      OFFSET 2.921100 9.558500 0.000000
      CHANNELS 3 Yrotation Xrotation Zrotation
      JOINT LeftShoulder
      {
       OFFSET 13.519700 0.000000 0.000000
       CHANNELS 3 Yrotation Xrotation Zrotation
       JOINT LeftElbow
       {
        OFFSET 0.000000 -29.696600 0.000000
        CHANNELS 3 Yrotation Xrotation Zrotation
        JOINT LeftWrist
        {
         OFFSET 0.000000 -24.004700 0.000000
         CHANNELS 3 Yrotation Xrotation Zrotation
         End Site
         {
          OFFSET 0.000000 -17.728500 0.000000
         }
        }
       }
      }
     }
    }
   }
  }
 }
 JOINT RightHip
 {
  OFFSET -7.771700 -0.012900 -0.001300
  CHANNELS 3 Yrotation Xrotation Zrotation
  JOINT RightKnee
  {
   OFFSET 0.000000 -40.869800 0.001200
   CHANNELS 3 Yrotation Xrotation Zrotation
   JOINT RightAnkle
   {
    OFFSET 0.000000 -39.717900 0.002100
    CHANNELS 3 Yrotation Xrotation Zrotation
    JOINT RightToe
    {
     OFFSET 0.000000 -4.965400 11.033500
     CHANNELS 3 Yrotation Xrotation Zrotation
     End Site
     {
      OFFSET 0.000000 -1.423100 5.872300
     }
    }
   }
  }
 }
 JOINT LeftHip
 {
  OFFSET 7.771700 -0.012900 -0.001300
  CHANNELS 3 Yrotation Xrotation Zrotation
  JOINT LeftKnee
  {
   OFFSET 0.000000 -40.869800 0.001200
   CHANNELS 3 Yrotation Xrotation Zrotation
   JOINT LeftAnkle
   {
    OFFSET 0.000000 -39.717900 0.002100
    CHANNELS 3 Yrotation Xrotation Zrotation
    JOINT LeftToe
    {
     OFFSET 0.000000 -4.965400 11.033500
     CHANNELS 3 Yrotation Xrotation Zrotation
     End Site
     {
      OFFSET 0.000000 -1.423100 5.872300
     }
    }
   }
  }
 }
}
MOTION
Frames: 5
Frame Time: 0.008333
-221.556761 57.240820 136.062084 177.911275 -29.329340 -1.308359 0.457921 19.725403 1.686310 0.003632 2.405994 0.224150 0.014039 3.958437 0.363412 0.233398 16.970576 1.635923 -2.307806 14.082826 -0.589078 -4.115638 -9.628053 -0.215484 5.509821 -3.592495 -1.278645 17.663913 -20.844187 -15.751898 100.368403 -61.545718 -57.219145 16.224803 -25.718163 -50.072047 -7.857144 -4.212355 -3.275267 -1.399991 -16.086339 -2.067386 -16.191759 -76.542309 -14.981688 0.586236 -16.356748 19.405696 3.789679 -47.140895 -4.257167 -7.920669 68.151853 -11.792215 8.239114 23.881897 3.028137 -0.883596 -16.342600 6.430552 -10.377817 -44.314088 2.505233 32.477334 70.370579 35.300466 -13.360125 2.182665 -6.483293 0.051592 0.311232 0.006834
-221.557958 57.241142 136.061111 177.914123 -29.327362 -1.304255 0.452642 19.723749 1.681765 0.003448 2.405537 0.224242 0.010767 3.954814 0.369067 0.231127 16.966979 1.636046 -2.303715 14.003353 -0.617948 -4.098246 -9.776576 -0.269047 5.490806 -3.539788 -1.286316 17.559051 -20.867495 -15.743790 101.652234 -61.422305 -58.629851 16.142365 -25.730369 -50.097135 -7.851647 -4.198555 -3.279724 -1.361318 -16.026701 -2.004130 -15.435084 -77.120661 -15.893280 0.497942 -16.229489 19.426754 3.810142 -47.139850 -4.270028 -7.948328 68.150668 -11.819013 8.242688 23.873225 3.036900 -0.880683 -16.335055 6.430570 -10.375238 -44.318281 2.500181 32.475511 70.376511 35.291420 -13.350458 2.185901 -6.472339 0.035594 0.308603 0.007024
-221.557980 57.241183 136.061003 177.918369 -29.318181 -1.306136 0.446313 19.715966 1.685199 0.003216 2.404058 0.224551 0.009585 3.950531 0.373064 0.229300 16.965155 1.634102 -2.301013 13.920636 -0.645798 -4.083807 -9.930977 -0.320230 5.471052 -3.478729 -1.293021 17.476569 -20.890031 -15.745539 103.005552 -61.259350 -60.182260 16.051607 -25.740226 -50.098278 -7.831310 -4.161344 -3.261875 -1.296765 -16.008830 -1.967985 -14.483829 -77.728091 -17.043482 0.410521 -16.097197 19.434114 3.818914 -47.147766 -4.275445 -7.959919 68.150914 -11.826371 8.242860 23.868014 3.036785 -0.873542 -16.330025 6.431332 -10.380539 -44.328349 2.504035 32.479664 70.377525 35.293372 -13.351331 2.188377 -6.471181 0.040680 0.308052 0.011469
-221.558726 57.241141 136.061437 177.925339 -29.303139 -1.303650 0.438062 19.706175 1.688332 0.002406 2.400843 0.225235 0.008981 3.947992 0.364097 0.228793 16.961383 1.640028 -2.298131 13.834221 -0.670119 -4.072096 -10.088829 -0.370557 5.461220 -3.443882 -1.299558 17.436347 -20.900163 -15.748449 104.325728 -61.050166 -61.795180 15.954003 -25.752446 -50.063694 -7.802051 -4.131563 -3.239343 -1.206311 -16.006748 -1.937240 -13.340603 -78.358752 -18.422732 0.329222 -15.950796 19.419476 3.823472 -47.162122 -4.286857 -7.957292 68.153475 -11.823776 8.246980 23.859441 3.037546 -0.866835 -16.322948 6.430868 -10.384019 -44.343845 2.500300 32.484297 70.375957 35.295353 -13.351732 2.188791 -6.467825 0.038228 0.309107 0.011629
-221.558491 57.241812 136.061196 177.928308 -29.291162 -1.303679 0.436876 19.698551 1.693508 0.002384 2.398807 0.226011 0.005816 3.945680 0.363494 0.232969 16.954228 1.648147 -2.298819 13.749957 -0.697602 -4.064186 -10.246060 -0.419699 5.436843 -3.345034 -1.308261 17.330312 -20.918020 -15.766741 105.875829 -60.791555 -63.650851 15.839324 -25.764186 -49.990632 -7.733614 -4.097301 -3.194593 -1.124655 -16.032217 -1.935754 -11.948293 -78.999205 -20.072700 0.252956 -15.780179 19.374206 3.827010 -47.170221 -4.291381 -7.959360 68.151913 -11.826841 8.274629 23.841527 3.040174 -0.868433 -16.308960 6.435434 -10.386208 -44.354246 2.500449 32.485307 70.375019 35.293671 -13.344965 2.187640 -6.460469 0.032085 0.310964 0.009243
